<svg width="24" height="27" viewBox="0 0 24 27" fill="none" xmlns="http://www.w3.org/2000/svg">
<path d="M5.3335 12H8.00016V14.6667H5.3335V12ZM5.3335 17.3333H8.00016V20H5.3335V17.3333ZM10.6668 12H13.3335V14.6667H10.6668V12ZM10.6668 17.3333H13.3335V20H10.6668V17.3333ZM16.0002 12H18.6668V14.6667H16.0002V12ZM16.0002 17.3333H18.6668V20H16.0002V17.3333Z" fill="black"/>
<path d="M2.66667 26.6667H21.3333C22.804 26.6667 24 25.4707 24 24V5.33333C24 3.86267 22.804 2.66667 21.3333 2.66667H18.6667V0H16V2.66667H8V0H5.33333V2.66667H2.66667C1.196 2.66667 0 3.86267 0 5.33333V24C0 25.4707 1.196 26.6667 2.66667 26.6667ZM21.3333 8L21.3347 24H2.66667V8H21.3333Z" fill="black"/>
</svg>
