<svg width="18" height="16" viewBox="0 0 18 16" fill="none" xmlns="http://www.w3.org/2000/svg">
<path d="M17.8393 3.93853C17.7565 3.82038 17.646 3.72381 17.5172 3.65708C17.3883 3.59036 17.245 3.55548 17.0995 3.55544H4.79957L3.761 1.0933C3.62482 0.769063 3.39423 0.492065 3.09846 0.297426C2.80269 0.102786 2.45506 -0.000729788 2.09964 3.87297e-06H0V1.77772H2.09964L6.36913 11.8974C6.43752 12.0593 6.55289 12.1976 6.7007 12.2949C6.84852 12.3921 7.02218 12.444 7.19981 12.444H14.3996C14.7749 12.444 15.1106 12.2138 15.2429 11.868L17.9428 4.75717C17.9939 4.62262 18.0111 4.47785 17.9931 4.33528C17.975 4.1927 17.9223 4.05657 17.8393 3.93853Z" fill="white"/>
<path d="M7.64977 16.0001C8.39533 16.0001 8.99973 15.4031 8.99973 14.6668C8.99973 13.9304 8.39533 13.3335 7.64977 13.3335C6.9042 13.3335 6.2998 13.9304 6.2998 14.6668C6.2998 15.4031 6.9042 16.0001 7.64977 16.0001Z" fill="white"/>
<path d="M13.9496 16.0001C14.6951 16.0001 15.2995 15.4031 15.2995 14.6668C15.2995 13.9304 14.6951 13.3335 13.9496 13.3335C13.204 13.3335 12.5996 13.9304 12.5996 14.6668C12.5996 15.4031 13.204 16.0001 13.9496 16.0001Z" fill="white"/>
</svg>
