<svg width="48" height="48" viewBox="0 0 48 48" fill="none" xmlns="http://www.w3.org/2000/svg">
<g clip-path="url(#clip0_14_225)">
<path d="M29.8226 32.7659C29.9485 32.6886 30.0422 32.6412 30.1253 32.5789C32.0422 31.1376 33.3769 29.2811 34.0546 26.9565C34.1894 26.4938 34.2475 26.4704 34.6914 26.6868C38.3887 28.4894 42.086 30.2921 45.7833 32.0941C46.2604 32.3266 46.2735 32.347 46.0735 32.842C43.8741 38.302 40.2017 42.4347 35.057 45.2105C30.8464 47.483 26.3271 48.3927 21.6002 47.8438C13.2721 46.8765 7.06387 42.6025 2.99983 35.205C1.25564 32.03 0.386806 28.5853 0.253276 24.9591C0.0687089 19.9359 1.31083 15.2968 3.98914 11.0575C4.13513 10.8262 4.09715 10.7177 3.9102 10.5475C1.28769 8.16001 -0.0214977 5.18219 0.00224092 1.61167C0.00461477 1.19577 0.00817556 0.779868 -0.000132942 0.363967C-0.00488066 0.115265 0.0977887 0.000203385 0.345857 0.0127883C0.478793 0.0193804 0.612322 0.0127883 0.745852 0.0127883C8.07692 0.0127883 15.4086 0.0127883 22.7396 0.0127883C30.9188 0.0127883 39.0985 0.0127883 47.2776 0.0127883C47.4111 0.0127883 47.5589 -0.02197 47.6735 0.0253732C47.7916 0.0739149 47.9589 0.196768 47.9648 0.296248C48.1595 3.44847 47.5761 6.39633 45.5851 8.92589C43.2895 11.842 40.2789 13.348 36.584 13.3989C34.4635 13.4283 32.3431 13.4103 30.222 13.3965C29.8927 13.3941 29.793 13.4858 29.7936 13.8262C29.8037 20.0174 29.8007 26.2086 29.8019 32.3997C29.8019 32.5052 29.8137 32.6113 29.8232 32.7665L29.8226 32.7659ZM36.0617 31.5086C35.9703 31.653 35.9092 31.7579 35.8404 31.8568C32.7003 36.3742 28.3983 38.6275 22.9408 38.2547C15.354 37.7363 9.58432 31.3048 9.84604 23.6298C10.0514 17.6161 13.0727 13.375 18.4394 10.819C18.8857 10.6063 19.37 10.4744 19.8394 10.3138C20.0803 10.2317 20.2162 10.3198 20.2097 10.5907C20.2079 10.6764 20.2097 10.7621 20.2097 10.8478C20.2097 17.5651 20.2097 24.2825 20.2097 31.0004C20.2097 31.8694 20.2014 32.7383 20.2198 33.6061C20.2222 33.7247 20.3343 33.9099 20.4364 33.9471C22.0975 34.5452 23.8031 34.7381 25.5515 34.463C26.0886 34.3785 26.0874 34.3684 26.0874 33.8326C26.0874 25.9892 26.0874 18.1464 26.0874 10.303C26.0874 9.88994 26.287 9.68338 26.6862 9.68338C29.9093 9.68338 33.133 9.68578 36.3561 9.68338C38.8694 9.68099 40.9548 8.73292 42.5596 6.76848C43.2759 5.89113 43.7875 4.90052 44.0403 3.72713C43.8652 3.72713 43.7234 3.72713 43.5821 3.72713C37.1958 3.72533 30.8096 3.70556 24.4239 3.73732C23.085 3.74391 21.729 3.835 20.4121 4.06872C16.4412 4.77467 12.97 6.55094 10.0965 9.41311C5.17844 14.3116 3.18677 20.2625 4.17904 27.1554C4.83542 31.7135 6.89652 35.6149 10.2585 38.7305C15.5546 43.6374 21.78 45.2765 28.7716 43.6542C33.2719 42.6097 36.924 40.1119 39.7899 36.4605C40.3661 35.7263 40.8599 34.9269 41.4178 34.1209C39.5952 33.2327 37.8439 32.3787 36.06 31.5098L36.0617 31.5086ZM16.5112 16.5781C14.4573 18.7805 13.4567 21.3004 13.5119 24.2141C13.5635 26.9606 14.5653 29.332 16.5112 31.2952V16.5775V16.5781ZM3.9292 3.74331C4.34699 5.40032 5.18081 6.72114 6.43718 7.82142C7.86149 6.26508 9.43417 4.92929 11.2478 3.74331H3.9292Z" fill="black"/>
</g>
<defs>
<clipPath id="clip0_14_225">
<rect width="48" height="48" fill="white"/>
</clipPath>
</defs>
</svg>
