<svg width="24" height="24" viewBox="0 0 24 24" fill="none" xmlns="http://www.w3.org/2000/svg">
<path d="M14.9113 16.3831C14.9742 16.3444 15.0211 16.3208 15.0626 16.2896C16.0211 15.5689 16.6884 14.6406 17.0273 13.4783C17.0946 13.247 17.1237 13.2353 17.3457 13.3435C19.1943 14.2448 21.0429 15.1461 22.8915 16.0472C23.1301 16.1634 23.1366 16.1736 23.0366 16.4211C21.937 19.1512 20.1008 21.2176 17.5285 22.6056C15.4232 23.7418 13.1636 24.1967 10.8001 23.9222C6.63613 23.4386 3.53204 21.3015 1.50004 17.6026C0.627957 16.0151 0.193546 14.2927 0.126782 12.4796C0.0344991 9.96793 0.655553 7.64836 1.99469 5.52865C2.06769 5.41299 2.0487 5.35875 1.95523 5.27365C0.643981 4.07986 -0.0106038 2.59091 0.0012654 0.805609C0.00245232 0.597654 0.00423269 0.389699 7.84868e-05 0.181744C-0.00229535 0.0573899 0.0490388 -0.000142451 0.173072 0.00615014C0.239539 0.00944627 0.306303 0.00615014 0.373067 0.00615014C4.03856 0.00615014 7.70435 0.00615014 11.3698 0.00615014C15.4594 0.00615014 19.5492 0.00615014 23.6387 0.00615014C23.7055 0.00615014 23.7794 -0.0112294 23.8366 0.0124427C23.8957 0.0367142 23.9793 0.0981419 23.9823 0.147883C24.0796 1.72403 23.788 3.19799 22.7924 4.46281C21.6447 5.92089 20.1394 6.6739 18.2919 6.69937C17.2317 6.71406 16.1715 6.70507 15.111 6.69818C14.9463 6.69698 14.8965 6.74282 14.8968 6.91302C14.9018 10.0087 14.9003 13.1043 14.9009 16.2C14.9009 16.2527 14.9066 16.3055 14.9113 16.3831ZM18.0308 15.7544C17.9851 15.8266 17.9546 15.8791 17.9201 15.9285C16.3501 18.1873 14.1992 19.3139 11.4704 19.1276C7.67705 18.8684 4.79225 15.6525 4.92311 11.815C5.02578 8.80799 6.53643 6.68739 9.21975 5.40939C9.44289 5.30302 9.68502 5.23709 9.91973 5.15679C10.0402 5.11574 10.1082 5.15979 10.1049 5.29523C10.104 5.33808 10.1049 5.38092 10.1049 5.42377C10.1049 8.78252 10.1049 12.1413 10.1049 15.5003C10.1049 15.9348 10.1007 16.3693 10.1099 16.8032C10.1111 16.8625 10.1672 16.9551 10.2182 16.9737C11.0488 17.2727 11.9016 17.3692 12.7757 17.2317C13.0443 17.1894 13.0437 17.1843 13.0437 16.9165C13.0437 12.9947 13.0437 9.07318 13.0437 5.1514C13.0437 4.94484 13.1435 4.84156 13.3431 4.84156C14.9546 4.84156 16.5665 4.84276 18.178 4.84156C19.4346 4.84036 20.4774 4.36632 21.2797 3.38408C21.6379 2.94539 21.8936 2.45007 22.02 1.86336C21.9325 1.86336 21.8616 1.86336 21.791 1.86336C18.5979 1.86247 15.4048 1.85258 12.212 1.86846C11.5425 1.87175 10.8645 1.9173 10.2061 2.03416C8.22066 2.38715 6.48509 3.2753 5.04833 4.70642C2.58934 7.15574 1.59351 10.1312 2.08964 13.5778C2.41783 15.8569 3.44837 17.8076 5.12934 19.3655C7.77735 21.819 10.89 22.6385 14.3858 21.8274C16.6359 21.3051 18.462 20.0562 19.8949 18.2304C20.183 17.8633 20.4299 17.4636 20.7088 17.0606C19.7975 16.6165 18.9219 16.1895 18.0299 15.755L18.0308 15.7544ZM8.25567 8.289C7.2287 9.39021 6.72841 10.6502 6.756 12.1071C6.78182 13.4804 7.2827 14.6661 8.25567 15.6477V8.289ZM1.96472 1.87146C2.17362 2.69998 2.59052 3.3604 3.2187 3.91056C3.93085 3.13237 4.71718 2.46446 5.62398 1.87146H1.96472Z" fill="white"/>
</svg>
