<svg width="175" height="175" viewBox="0 0 175 175" fill="none" xmlns="http://www.w3.org/2000/svg">
<g clip-path="url(#clip0_14_171)">
<path d="M166.822 43.1768H75.5018V102.235H166.822V43.1768Z" fill="white"/>
<path d="M167 102.411H75.3244V43H167V102.411ZM75.6794 102.058H166.645V43.3534H75.6793L75.6794 102.058Z" fill="#E4E4E4"/>
<path d="M115.423 48.9526C118.105 48.9983 118.105 52.9698 115.423 53.0149C112.741 52.9695 112.741 48.9983 115.423 48.9526Z" fill="#090814"/>
<path d="M121.162 48.9526C123.844 48.9983 123.844 52.9698 121.162 53.0149C118.48 52.9695 118.48 48.9983 121.162 48.9526Z" fill="#6BCEF5"/>
<path d="M126.901 48.9526C129.584 48.9983 129.583 52.9698 126.901 53.0149C124.219 52.9695 124.219 48.9983 126.901 48.9526Z" fill="#CACACA"/>
<path d="M109.54 64.5054H91.2755V64.7257H109.54V64.5054Z" fill="#CACACA"/>
<path d="M151.16 96.4581H126.033V73.0996H151.16V96.4581ZM126.254 96.2378H150.938V73.3197H126.254L126.254 96.2378Z" fill="#CACACA"/>
<path d="M126.219 73.1299L126.068 73.291L150.971 96.4186L151.122 96.2574L126.219 73.1299Z" fill="#CACACA"/>
<path d="M150.971 73.14L126.067 96.2676L126.218 96.4287L151.122 73.3011L150.971 73.14Z" fill="#CACACA"/>
<path d="M151.16 61.4201H91.1647V57.3433H151.16V61.4201ZM91.3861 61.1999H150.938V57.5637H91.3861V61.1999Z" fill="#CACACA"/>
<path d="M113.355 79.4406H91.3421V75.3638H113.355V79.4406ZM91.5635 79.2204H113.134V75.5842H91.5635V79.2204Z" fill="#CACACA"/>
<path d="M113.355 86.3308H91.3421V82.2539H113.355V86.3308ZM91.5635 86.1105H113.134V82.4744H91.5635V86.1105Z" fill="#CACACA"/>
<path d="M113.355 93.2209H91.3421V89.144H113.355V93.2209ZM91.5635 93.0006H113.134V89.3645H91.5635V93.0006Z" fill="#CACACA"/>
<path d="M97.1071 69.557H91.203C91.6587 67.7314 91.6037 65.7563 91.203 63.6802H97.107C96.6982 64.6064 96.4871 65.607 96.4871 66.6186C96.4871 67.6302 96.6984 68.6308 97.1071 69.557Z" fill="#6BCEF5"/>
<path d="M95.6759 64.9268H92.0976V65.6392H95.6759V64.9268Z" fill="white"/>
<path d="M95.6759 66.3511H92.0976V67.0635H95.6759V66.3511Z" fill="white"/>
<path d="M95.6759 67.7764H92.0976V68.4888H95.6759V67.7764Z" fill="white"/>
<path d="M141.568 78.4325H135.664C136.12 76.6068 136.065 74.6317 135.664 72.5557H141.568C141.16 73.4819 140.948 74.4825 140.948 75.4941C140.948 76.5057 141.16 77.5063 141.568 78.4325H141.568Z" fill="#6BCEF5"/>
<path d="M140.137 73.8018H136.559V74.5142H140.137V73.8018Z" fill="white"/>
<path d="M140.137 75.2266H136.559V75.939H140.137V75.2266Z" fill="white"/>
<path d="M140.137 76.6514H136.559V77.3638H140.137V76.6514Z" fill="white"/>
<path d="M149.159 65.8388H143.255C143.711 64.0131 143.656 62.038 143.255 59.9619H149.159C148.75 60.8881 148.539 61.8887 148.539 62.9003C148.539 63.912 148.75 64.9126 149.159 65.8388Z" fill="#6BCEF5"/>
<path d="M147.728 61.2085H144.15V61.9209H147.728V61.2085Z" fill="white"/>
<path d="M147.728 62.6333H144.15V63.3457H147.728V62.6333Z" fill="white"/>
<path d="M147.728 64.0581H144.15V64.7705H147.728V64.0581Z" fill="white"/>
<path d="M45.668 70.437H35.5514V65.0487C35.5476 64.3851 35.6756 63.7272 35.9281 63.113C36.1806 62.4988 36.5526 61.9404 37.0227 61.4698C37.4928 60.9992 38.0517 60.6257 38.6673 60.3709C39.2829 60.1161 39.943 59.9849 40.6097 59.9849C41.2764 59.9849 41.9365 60.1161 42.5521 60.3709C43.1677 60.6257 43.7266 60.9992 44.1967 61.4698C44.6668 61.9404 45.0388 62.4988 45.2913 63.113C45.5438 63.7272 45.6718 64.3851 45.668 65.0487V70.437Z" fill="#090814"/>
<path d="M50.0146 130.061H52.3379L53.4439 121.706H50.0143L50.0146 130.061Z" fill="#FFB6B6"/>
<path d="M22.3467 127.987L25.176 128.7L31.5242 121.193L27.3483 120.141L22.3467 127.987Z" fill="#FFB6B6"/>
<path d="M42.993 67.9821C42.993 67.9821 41.812 70.633 42.4498 71.2168C43.0876 71.8006 38.4586 72.465 38.4586 72.465C38.4586 72.465 38.6536 68.8217 38.3336 68.0344L42.993 67.9821Z" fill="#FFB9B9"/>
<path d="M38.0795 92.3109L37.9116 93.1256C37.9116 93.1256 37.4078 93.6145 37.6597 93.8588C37.9116 94.1032 37.8276 95.2439 37.8276 95.2439C37.6867 97.3239 34.8861 109.012 34.3853 111.295C34.3853 111.295 30.5232 113.739 27.5007 118.546C24.4782 123.354 24.3943 124.576 24.3943 124.576L27.7526 125.961L36.1484 116.102C36.1484 116.102 38.4996 114.717 39.3381 113.495C40.1767 112.273 45.3832 99.6437 45.3832 99.6437L48.3217 112.843C48.3217 112.843 48.1538 117.65 48.9094 120.746C49.3737 122.699 49.6548 124.69 49.7489 126.694L53.695 126.287C53.695 126.287 53.4431 114.717 53.0233 113.495C53.0233 113.495 54.7864 99.3993 51.2602 93.7775L48.4191 86.4249L45.6358 85.3853L38.0795 92.3109Z" fill="#090814"/>
<path d="M40.5578 61.3306C45.8553 61.4206 45.8544 69.2642 40.5578 69.3536C35.2605 69.2634 35.2613 61.4198 40.5578 61.3306Z" fill="#FFB8B8"/>
<path d="M44.6346 65.134H43.7342L43.4891 64.5238L43.6117 65.134H38.6875L38.8478 63.8574L37.6509 65.134H36.4568V64.4422C36.4534 63.9055 36.5567 63.3735 36.7606 62.8767C36.9646 62.3799 37.2652 61.9281 37.6452 61.5475C38.0253 61.1668 38.4772 60.8646 38.975 60.6585C39.4727 60.4523 40.0066 60.3462 40.5457 60.3462C41.0849 60.3462 41.6187 60.4523 42.1165 60.6585C42.6143 60.8646 43.0662 61.1668 43.4462 61.5475C43.8262 61.9281 44.1269 62.3799 44.3308 62.8767C44.5348 63.3735 44.638 63.9055 44.6346 64.4422V65.134Z" fill="#090814"/>
<path d="M46.02 71.3687L36.009 71.4493L38.1249 92.811C38.1249 92.811 49.8316 92.1959 49.8388 88.6392L48.7421 85.4783L46.02 71.3687Z" fill="#E6E6E6"/>
<path d="M64.6509 108.643L29.7531 115.837C29.3963 115.909 28.9846 115.38 28.8324 114.654L25.1658 97.0227C25.0147 96.2962 25.1822 95.6479 25.5382 95.5733L60.4355 88.3797C60.7923 88.3071 61.204 88.836 61.3563 89.5627L65.0242 107.193C65.1741 107.92 65.0071 108.569 64.6509 108.643Z" fill="white"/>
<path d="M38.2133 103.342C39.9345 103.342 41.3297 101.954 41.3297 100.24C41.3297 98.527 39.9345 97.1382 38.2133 97.1382C36.4922 97.1382 35.0969 98.527 35.0969 100.24C35.0969 101.954 36.4922 103.342 38.2133 103.342Z" fill="#F0F0F0"/>
<path d="M49.7293 107.628L34.7592 110.714C34.7405 110.718 34.7214 110.72 34.7023 110.721L39.2431 97.0551C39.2704 96.9701 39.32 96.8939 39.3866 96.8343C39.4533 96.7746 39.5346 96.7336 39.6224 96.7155C39.7101 96.6975 39.8012 96.7029 39.8861 96.7313C39.9711 96.7597 40.047 96.81 40.106 96.8772L46.5619 104.09L46.8712 104.435L49.7293 107.628Z" fill="#E4E4E4"/>
<path d="M58.0649 105.91L45.117 108.579L46.8712 104.435L46.9973 104.136L49.2828 98.7351C49.3255 98.6509 49.3856 98.5767 49.4591 98.5171C49.5326 98.4576 49.6179 98.4141 49.7094 98.3895C49.8009 98.3649 49.8965 98.3597 49.9902 98.3743C50.0838 98.3889 50.1733 98.423 50.2528 98.4742C50.2736 98.4893 50.2934 98.5057 50.312 98.5233L58.0649 105.91Z" fill="#E4E4E4"/>
<path d="M64.6509 108.643L29.7531 115.837C29.3963 115.909 28.9846 115.38 28.8324 114.654L25.1658 97.0227C25.0147 96.2962 25.1822 95.6479 25.5382 95.5733L60.4355 88.3797C60.7923 88.3071 61.204 88.836 61.3563 89.5627L65.0242 107.193C65.1741 107.92 65.0071 108.569 64.6509 108.643ZM25.6475 96.0999C25.4338 96.1441 25.3337 96.5336 25.4241 96.9696L29.092 114.6C29.1827 115.036 29.4299 115.353 29.6441 115.31L64.5414 108.116C64.7552 108.072 64.8553 107.683 64.7649 107.247L61.097 89.6162C61.0062 89.1804 60.7591 88.8634 60.5449 88.9064L25.6475 96.0999Z" fill="#CACACA"/>
<path d="M54.3262 92.3243C54.1059 92.2214 53.911 92.0717 53.7552 91.8857C53.5993 91.6998 53.4864 91.482 53.4242 91.2479C53.362 91.0137 53.3522 90.7688 53.3954 90.5305C53.4386 90.2922 53.5338 90.0662 53.6743 89.8684L51.647 86.6655L53.3018 84.9644L56.1009 89.5276C56.419 89.7845 56.6313 90.1486 56.6977 90.5509C56.7641 90.9532 56.68 91.3658 56.4612 91.7105C56.2425 92.0552 55.9044 92.308 55.5109 92.4212C55.1174 92.5343 54.6959 92.4998 54.3262 92.3243Z" fill="#FFB6B6"/>
<path d="M44.482 72.2105L45.9343 71.2578C45.9343 71.2578 47.055 71.5079 48.2472 73.7902C49.4395 76.0725 54.2464 86.2757 54.2464 86.2757L52.2706 88.2724L46.9995 80.2677L44.482 72.2105Z" fill="#E6E6E6"/>
<path d="M35.5806 94.8766C35.7345 94.689 35.8451 94.4701 35.9047 94.2353C35.9643 94.0005 35.9715 93.7555 35.9257 93.5176C35.88 93.2798 35.7824 93.0548 35.6398 92.8585C35.4972 92.6623 35.3131 92.4995 35.1005 92.3817L35.5356 88.6209L33.3041 87.8003L32.7648 93.1194C32.5897 93.488 32.5565 93.9078 32.6715 94.2991C32.7866 94.6905 33.0418 95.0262 33.389 95.2427C33.7361 95.4593 34.1509 95.5415 34.5549 95.4739C34.9589 95.4063 35.3239 95.1936 35.5808 94.876L35.5806 94.8766Z" fill="#FFB6B6"/>
<path d="M37.3263 73.2892L36.0091 71.4562C36.0091 71.4562 35.1078 71.257 34.0428 72.4936C32.9779 73.7303 32.3567 89.1889 32.3567 89.1889L36.2613 90.0726L38.5686 79.1191L37.3263 73.2892Z" fill="#E6E6E6"/>
<path d="M76.7993 132.209H9.1774C9.13033 132.209 9.08518 132.19 9.05189 132.157C9.01861 132.124 8.99991 132.079 8.99991 132.032C8.99991 131.985 9.01861 131.94 9.05189 131.907C9.08518 131.874 9.13033 131.855 9.1774 131.855H76.7993C76.8464 131.855 76.8915 131.874 76.9248 131.907C76.9581 131.94 76.9768 131.985 76.9768 132.032C76.9768 132.079 76.9581 132.124 76.9248 132.157C76.8915 132.19 76.8464 132.209 76.7993 132.209Z" fill="#E6E6E6"/>
<path d="M33.2895 100.241L27.5142 101.462C27.5791 99.5813 27.1132 97.6607 26.2879 95.7128L32.0632 94.4922C31.8566 95.4827 31.8589 96.5051 32.07 97.4947C32.2811 98.4843 32.6963 99.4194 33.2895 100.241Z" fill="#6BCEF5"/>
<path d="M30.923 96.0073L27.4228 96.7471L27.5714 97.444L31.0717 96.7042L30.923 96.0073Z" fill="white"/>
<path d="M31.2203 97.4009L27.72 98.1406L27.8687 98.8375L31.3689 98.0978L31.2203 97.4009Z" fill="white"/>
<path d="M31.5176 98.7944L28.0173 99.5342L28.166 100.231L31.6662 99.4913L31.5176 98.7944Z" fill="white"/>
<path d="M55.4166 132.032C55.7017 132.032 55.9557 132.026 56.1476 132.008C56.8683 131.942 57.5564 131.412 57.9025 131.102C57.9782 131.034 58.0308 130.945 58.0531 130.846C58.0754 130.747 58.0663 130.643 58.0269 130.55C57.9986 130.482 57.9554 130.422 57.9004 130.374C57.8454 130.325 57.7801 130.29 57.7094 130.27L55.8043 129.728L52.7195 127.656L52.6844 127.718C52.5164 128.015 52.3767 128.328 52.2671 128.651C52.2467 128.707 52.2388 128.767 52.2439 128.827C52.249 128.887 52.267 128.945 52.2967 128.997C52.3319 129.049 52.3814 129.09 52.4393 129.115C52.3836 129.173 52.2091 129.292 51.6695 129.377C50.8827 129.501 50.7168 128.69 50.7104 128.656L50.7052 128.629L50.6818 128.613C50.3073 128.373 50.0766 128.264 49.9975 128.287C49.9482 128.301 49.866 128.327 49.641 130.537C49.5324 130.881 49.5076 131.245 49.5685 131.601C49.6836 132.13 52.0064 131.948 52.4717 131.906C52.4847 131.908 54.2239 132.032 55.4148 132.032H55.4161L55.4166 132.032Z" fill="#090814"/>
<path d="M26.7261 131.851C26.9926 131.975 27.2329 132.079 27.42 132.146C28.1221 132.397 28.9955 132.205 29.4531 132.068C29.553 132.038 29.6411 131.978 29.7049 131.896C29.7687 131.814 29.8051 131.714 29.809 131.611C29.8116 131.536 29.7972 131.461 29.7669 131.392C29.7365 131.323 29.6909 131.262 29.6336 131.214L28.0879 129.885L26.801 126.785L26.7414 126.827C26.7193 126.843 26.1202 127.179 25.8668 127.474C25.8233 127.518 25.7898 127.57 25.7687 127.627C25.7476 127.685 25.7394 127.746 25.7446 127.807C25.7549 127.871 25.7833 127.931 25.8264 127.979C25.3358 127.969 24.8484 127.898 24.3758 127.767C23.5867 127.54 23.7838 126.716 23.792 126.683L23.7988 126.656L23.784 126.631C23.5382 126.246 23.3694 126.044 23.286 126.031C23.2338 126.023 23.1451 126.011 21.9766 127.961C21.7258 128.232 21.5442 128.559 21.447 128.915C21.3256 129.455 23.575 130.294 24.0279 130.458C24.0394 130.465 25.6115 131.334 26.7248 131.851L26.726 131.851L26.7261 131.851Z" fill="#090814"/>
</g>
<defs>
<clipPath id="clip0_14_171">
<rect width="158" height="90" fill="white" transform="translate(9 43)"/>
</clipPath>
</defs>
</svg>
