<svg width="285" height="140" viewBox="0 0 285 140" fill="none" xmlns="http://www.w3.org/2000/svg">
<path d="M284.667 7.5C284.667 11.1819 281.682 14.1667 278 14.1667C274.318 14.1667 271.333 11.1819 271.333 7.5C271.333 3.8181 274.318 0.833333 278 0.833333C281.682 0.833333 284.667 3.8181 284.667 7.5ZM266.706 82L266.014 80.9589L266.706 82ZM13.6667 133C13.6667 136.682 10.6819 139.667 7 139.667C3.31812 139.667 0.333344 136.682 0.333344 133C0.333344 129.318 3.31812 126.333 7 126.333C10.6819 126.333 13.6667 129.318 13.6667 133ZM279.25 7.49999C279.25 8.26093 279.254 9.05925 279.262 9.8919L276.762 9.91481C276.754 9.07647 276.75 8.2703 276.75 7.50001L279.25 7.49999ZM279.328 14.7099C279.354 16.2498 279.383 17.8697 279.41 19.542L276.91 19.5826C276.883 17.9088 276.854 16.2976 276.829 14.7514L279.328 14.7099ZM279.478 24.3814C279.495 25.9643 279.507 27.583 279.511 29.2268L277.011 29.2324C277.007 27.5974 276.995 25.9861 276.978 24.4089L279.478 24.3814ZM279.494 34.0713C279.478 35.6771 279.451 37.2965 279.41 38.9204L276.911 38.8573C276.952 37.2478 276.978 35.6412 276.994 34.0467L279.494 34.0713ZM279.243 43.7732C279.17 45.3979 279.081 47.0181 278.97 48.6247L276.476 48.4536C276.585 46.869 276.674 45.2688 276.745 43.662L279.243 43.7732ZM278.567 53.4791C278.404 55.1229 278.216 56.7422 277.997 58.3262L275.521 57.9846C275.734 56.4359 275.919 54.8486 276.079 53.2331L278.567 53.4791ZM277.212 63.1565C276.897 64.8154 276.54 66.4198 276.135 67.9545L273.718 67.3177C274.105 65.8467 274.45 64.2997 274.756 62.6898L277.212 63.1565ZM274.646 72.6833C274.028 74.3275 273.33 75.8565 272.539 77.2394L270.369 75.998C271.082 74.7518 271.726 73.3476 272.306 71.8039L274.646 72.6833ZM269.444 81.3633C268.807 81.9945 268.126 82.5571 267.398 83.0411L266.014 80.9589C266.596 80.5717 267.153 80.1139 267.685 79.5871L269.444 81.3633ZM267.398 83.0411C266.691 83.5106 265.948 83.9462 265.171 84.3497L264.019 82.1306C264.722 81.7661 265.387 81.3758 266.014 80.9589L267.398 83.0411ZM260.345 86.3239C258.765 86.8266 257.086 87.2421 255.318 87.579L254.85 85.1232C256.533 84.8024 258.114 84.4101 259.588 83.9415L260.345 86.3239ZM250.201 88.3172C248.59 88.4834 246.92 88.6003 245.193 88.6721L245.089 86.1743C246.77 86.1043 248.39 85.9908 249.944 85.8304L250.201 88.3172ZM240.117 88.7583C238.454 88.7491 236.747 88.7059 235 88.6318L235.106 86.134C236.826 86.207 238.501 86.2493 240.131 86.2583L240.117 88.7583ZM230.022 88.3471C228.361 88.2294 226.668 88.0882 224.945 87.9257L225.18 85.4367C226.885 85.5975 228.559 85.7371 230.199 85.8534L230.022 88.3471ZM219.973 87.4089C218.323 87.2225 216.648 87.0195 214.95 86.8017L215.269 84.3221C216.955 84.5384 218.617 84.7398 220.254 84.9247L219.973 87.4089ZM209.982 86.1324C208.337 85.9008 206.672 85.6574 204.991 85.4037L205.364 82.9317C207.038 83.1843 208.694 83.4264 210.331 83.6568L209.982 86.1324ZM200.038 84.6359C198.394 84.3745 196.734 84.1049 195.062 83.8284L195.47 81.3619C197.138 81.6376 198.792 81.9064 200.431 82.1669L200.038 84.6359ZM190.127 83.0001C188.481 82.7201 186.824 82.4348 185.156 82.1453L185.584 79.6821C187.249 79.9712 188.903 80.2561 190.546 80.5355L190.127 83.0001ZM180.234 81.2849C178.587 80.9951 176.93 80.7026 175.266 80.4082L175.702 77.9465C177.365 78.2407 179.021 78.5331 180.667 78.8226L180.234 81.2849ZM170.351 79.5382C168.706 79.2471 167.055 78.9555 165.399 78.6641L165.832 76.202C167.489 76.4935 169.141 76.7853 170.786 77.0764L170.351 79.5382ZM160.469 77.8016C158.825 77.5157 157.178 77.2313 155.527 76.9492L155.949 74.4849C157.602 74.7675 159.252 75.0524 160.897 75.3385L160.469 77.8016ZM150.585 76.1135C148.939 75.8387 147.291 75.5671 145.643 75.2999L146.043 72.8321C147.696 73.1001 149.347 73.3723 150.996 73.6477L150.585 76.1135ZM140.695 74.5117C139.044 74.2536 137.393 74.0009 135.744 73.7544L136.113 71.2818C137.769 71.5292 139.425 71.7828 141.081 72.0417L140.695 74.5117ZM130.798 73.0345C129.139 72.7996 127.481 72.5721 125.828 72.3529L126.156 69.8746C127.818 70.0948 129.482 70.3233 131.149 70.5592L130.798 73.0345ZM120.877 71.7215C119.211 71.5177 117.551 71.3235 115.895 71.1399L116.171 68.6551C117.836 68.8398 119.506 69.0351 121.181 69.24L120.877 71.7215ZM110.931 70.6205C109.263 70.4567 107.601 70.305 105.947 70.1664L106.156 67.6751C107.822 67.8148 109.496 67.9676 111.175 68.1324L110.931 70.6205ZM100.966 69.7879C99.2964 69.6745 97.636 69.5759 95.9864 69.4933L96.1115 66.9964C97.7766 67.0798 99.4518 67.1793 101.136 67.2936L100.966 69.7879ZM90.99 69.2917C89.32 69.2413 87.6626 69.2089 86.0192 69.1957L86.0392 66.6958C87.702 66.7091 89.3779 66.7419 91.0655 66.7929L90.99 69.2917ZM81.0161 69.217C79.3474 69.2454 77.6951 69.2957 76.0607 69.3693L75.9482 66.8718C77.6071 66.7972 79.2827 66.7461 80.9736 66.7173L81.0161 69.217ZM71.0715 69.6719C69.4073 69.8 67.7642 69.9548 66.1438 70.138L65.8631 67.6538C67.5145 67.4671 69.1873 67.3095 70.8797 67.1793L71.0715 69.6719ZM61.2068 70.7959C59.5554 71.0512 57.931 71.3393 56.3355 71.662L55.8399 69.2116C57.4751 68.8809 59.1375 68.5861 60.825 68.3253L61.2068 70.7959ZM51.5145 72.7669C49.895 73.1842 48.31 73.6419 46.7615 74.1419L45.9933 71.7629C47.5919 71.2467 49.2252 70.7751 50.8906 70.346L51.5145 72.7669ZM42.1536 75.8004C40.604 76.4194 39.0973 77.0874 37.6359 77.8067L36.5319 75.5637C38.0539 74.8146 39.6196 74.1206 41.2262 73.4788L42.1536 75.8004ZM33.3474 80.1459C31.9388 80.9956 30.5804 81.9022 29.2747 82.8681L27.7879 80.8583C29.1589 79.8441 30.5826 78.894 32.056 78.0052L33.3474 80.1459ZM25.5048 85.9584C24.3013 87.0514 23.1528 88.2075 22.0618 89.4294L20.197 87.7644C21.3469 86.4764 22.5569 85.2585 23.8241 84.1077L25.5048 85.9584ZM19.0225 93.2143C18.0848 94.5151 17.2021 95.8802 16.3766 97.312L14.2108 96.0635C15.0781 94.5589 16.0068 93.1226 16.9944 91.7524L19.0225 93.2143ZM14.1382 101.672C13.4822 103.114 12.8767 104.615 12.324 106.178L9.96701 105.345C10.5433 103.715 11.1758 102.146 11.8627 100.636L14.1382 101.672ZM10.8592 110.931C10.4554 112.451 10.0962 114.023 9.7832 115.649L7.32831 115.176C7.65189 113.495 8.02386 111.867 8.44296 110.289L10.8592 110.931ZM8.99579 120.597C8.79633 122.163 8.63589 123.773 8.51569 125.43L6.02222 125.249C6.1456 123.549 6.31046 121.893 6.51584 120.281L8.99579 120.597ZM8.27979 130.41C8.25998 131.262 8.25 132.125 8.25 133H5.75C5.75 132.106 5.76019 131.224 5.78046 130.352L8.27979 130.41Z" fill="#6BCEF5"/>
</svg>
