<svg width="299" height="140" viewBox="0 0 299 140" fill="none" xmlns="http://www.w3.org/2000/svg">
<path d="M31.8333 7C31.8333 10.6819 34.8181 13.6667 38.5 13.6667C42.1819 13.6667 45.1667 10.6819 45.1667 7C45.1667 3.3181 42.1819 0.333333 38.5 0.333333C34.8181 0.333333 31.8333 3.3181 31.8333 7ZM13 82L12.0941 82.8613L13 82ZM285.333 133C285.333 136.682 288.318 139.667 292 139.667C295.682 139.667 298.667 136.682 298.667 133C298.667 129.318 295.682 126.333 292 126.333C288.318 126.333 285.333 129.318 285.333 133ZM37.7071 6.03366C37.0666 6.55923 36.4082 7.0992 35.7359 7.6523L37.3242 9.58291C37.9949 9.03111 38.6517 8.49242 39.2929 7.96634L37.7071 6.03366ZM31.799 10.9222C30.5248 11.9941 29.222 13.1066 27.9067 14.2574L29.5529 16.1389C30.8535 15.001 32.1438 13.8992 33.4084 12.8353L31.799 10.9222ZM24.0857 17.6876C22.8375 18.8399 21.5916 20.0248 20.3616 21.2405L22.119 23.0186C23.3265 21.8252 24.5516 20.6599 25.7815 19.5245L24.0857 17.6876ZM16.768 24.9402C15.5947 26.2022 14.4494 27.4933 13.3455 28.8119L15.2624 30.4168C16.3358 29.1347 17.4521 27.876 18.5989 26.6425L16.768 24.9402ZM10.1416 32.8882C9.10814 34.2967 8.13139 35.7335 7.22621 37.1969L9.35232 38.512C10.2196 37.11 11.1588 35.7278 12.1572 34.3671L10.1416 32.8882ZM4.69125 41.7638C3.91353 43.3491 3.22978 44.9631 2.65766 46.6033L5.01819 47.4267C5.55434 45.8895 6.19817 44.3683 6.93571 42.8649L4.69125 41.7638ZM1.27496 51.698C0.940441 53.4326 0.742361 55.1919 0.699737 56.9729L3.19902 57.0327C3.23814 55.3981 3.42005 53.7772 3.72973 52.1714L1.27496 51.698ZM1.04181 62.2784C1.30521 63.9845 1.72098 65.7026 2.30273 67.43L4.67199 66.6321C4.13551 65.0391 3.7539 63.4603 3.51254 61.8969L1.04181 62.2784ZM4.37653 72.2897C5.15438 73.7903 6.06365 75.2942 7.11221 76.8003L9.16393 75.3718C8.17411 73.9501 7.32157 72.5388 6.59606 71.1392L4.37653 72.2897ZM10.3206 80.9095C10.8844 81.5599 11.4753 82.2105 12.0941 82.8613L13.9059 81.1387C13.3127 80.5149 12.7476 79.8926 12.2098 79.2721L10.3206 80.9095ZM12.0941 82.8613C12.6913 83.4894 13.3323 84.0799 14.0149 84.6344L15.5912 82.694C14.9885 82.2044 14.4265 81.6863 13.9059 81.1387L12.0941 82.8613ZM18.41 87.4508C19.8972 88.2018 21.5034 88.8484 23.2173 89.4006L23.984 87.0211C22.3774 86.5035 20.8937 85.9043 19.5368 85.2192L18.41 87.4508ZM28.2114 90.6921C29.789 91.0126 31.4374 91.2753 33.1515 91.4846L33.4547 89.0031C31.7983 88.8008 30.2153 88.5482 28.7093 88.2421L28.2114 90.6921ZM38.1972 91.9406C39.8405 92.0416 41.5344 92.1036 43.2756 92.1297L43.313 89.63C41.6067 89.6044 39.9516 89.5437 38.3506 89.4453L38.1972 91.9406ZM48.2415 92.1121C49.904 92.0776 51.6038 92.0157 53.3386 91.9287L53.2133 89.4318C51.5008 89.5177 49.8256 89.5787 48.1897 89.6126L48.2415 92.1121ZM58.2596 91.6229C59.9166 91.5014 61.6018 91.3603 63.3133 91.2012L63.0819 88.712C61.3853 88.8696 59.7163 89.0094 58.0768 89.1296L58.2596 91.6229ZM68.2269 90.7046C69.8824 90.5246 71.5598 90.3302 73.2574 90.1227L72.9542 87.6412C71.2666 87.8474 69.6003 88.0406 67.9567 88.2193L68.2269 90.7046ZM78.1498 89.4975C79.7981 89.2781 81.4635 89.0482 83.1447 88.809L82.7926 86.334C81.1181 86.5722 79.4602 86.8011 77.82 87.0193L78.1498 89.4975ZM88.0407 88.0937C89.6777 87.8487 91.3281 87.5962 92.9907 87.3372L92.606 84.867C90.9477 85.1253 89.3023 85.377 87.6707 85.6212L88.0407 88.0937ZM97.9102 86.5589C99.5385 86.2976 101.177 86.0312 102.825 85.7608L102.42 83.2938C100.775 83.5638 99.139 83.8297 97.5141 84.0905L97.9102 86.5589ZM107.764 84.9436C109.387 84.6731 111.018 84.3996 112.656 84.1241L112.242 81.6587C110.604 81.9341 108.975 82.2074 107.353 82.4776L107.764 84.9436ZM117.59 83.292C119.217 83.0172 120.85 82.7412 122.487 82.4649L122.071 79.9998C120.433 80.2761 118.8 80.5522 117.174 80.8269L117.59 83.292ZM127.399 81.6383C129.035 81.364 130.674 81.0902 132.317 80.8177L131.908 78.3514C130.264 78.6242 128.623 78.8982 126.986 79.1727L127.399 81.6383ZM137.222 80.01C138.86 79.7426 140.5 79.4773 142.141 79.215L141.746 76.7463C140.102 77.0092 138.459 77.2749 136.819 77.5427L137.222 80.01ZM147.055 78.4392C148.694 78.1841 150.332 77.9328 151.971 77.6859L151.598 75.2138C149.956 75.4613 148.313 75.7133 146.671 75.969L147.055 78.4392ZM156.893 76.9583C158.537 76.7202 160.18 76.4874 161.82 76.2608L161.478 73.7843C159.832 74.0117 158.184 74.2452 156.534 74.4841L156.893 76.9583ZM166.734 75.6003C168.387 75.3845 170.036 75.1759 171.682 74.9752L171.379 72.4936C169.726 72.6952 168.07 72.9047 166.41 73.1214L166.734 75.6003ZM176.609 74.3976C178.262 74.2119 179.909 74.0352 181.55 73.8684L181.298 71.3812C179.647 71.5489 177.991 71.7266 176.33 71.9132L176.609 74.3976ZM186.503 73.394C188.15 73.2462 189.789 73.1095 191.421 72.9846L191.23 70.4919C189.587 70.6176 187.937 70.7553 186.279 70.904L186.503 73.394ZM196.406 72.6391C198.058 72.537 199.701 72.4484 201.333 72.3741L201.219 69.8767C199.573 69.9516 197.917 70.041 196.252 70.1438L196.406 72.6391ZM206.311 72.192C207.973 72.1467 209.622 72.1177 211.257 72.1062L211.239 69.6062C209.587 69.6179 207.921 69.6472 206.243 69.6929L206.311 72.192ZM216.208 72.1261C217.877 72.1521 219.53 72.1981 221.166 72.2652L221.268 69.7673C219.611 69.6993 217.937 69.6527 216.247 69.6264L216.208 72.1261ZM226.08 72.5353C227.751 72.6516 229.402 72.7921 231.03 72.9584L231.284 70.4714C229.627 70.3022 227.95 70.1593 226.253 70.0414L226.08 72.5353ZM235.893 73.5424C237.554 73.7731 239.189 74.0335 240.795 74.3252L241.242 71.8655C239.6 71.5672 237.931 71.3013 236.237 71.0662L235.893 73.5424ZM245.581 75.308C247.21 75.6834 248.806 76.095 250.366 76.5445L251.058 74.1422C249.452 73.6796 247.813 73.2568 246.142 72.8719L245.581 75.308ZM255.014 78.0354C256.575 78.5905 258.095 79.1893 259.571 79.8337L260.571 77.5424C259.039 76.8736 257.465 76.2535 255.851 75.6799L255.014 78.0354ZM263.961 81.9553C265.404 82.7256 266.797 83.5474 268.139 84.4229L269.505 82.3294C268.1 81.4122 266.643 80.5532 265.139 79.75L263.961 81.9553ZM272.078 87.2709C273.341 88.2815 274.547 89.3511 275.695 90.4821L277.449 88.7015C276.239 87.5087 274.968 86.3821 273.64 85.3192L272.078 87.2709ZM278.953 94.0544C279.963 95.2888 280.915 96.5859 281.806 97.9481L283.898 96.5797C282.958 95.143 281.954 93.7742 280.887 92.4711L278.953 94.0544ZM284.251 102.149C284.971 103.547 285.636 105.005 286.243 106.526L288.565 105.598C287.928 104.005 287.23 102.474 286.473 101.004L284.251 102.149ZM287.861 111.18C288.308 112.672 288.705 114.218 289.051 115.819L291.495 115.29C291.135 113.628 290.722 112.02 290.256 110.463L287.861 111.18ZM289.925 120.711C290.145 122.256 290.323 123.849 290.456 125.488L292.948 125.286C292.811 123.598 292.628 121.955 292.4 120.358L289.925 120.711ZM290.717 130.427C290.739 131.273 290.75 132.131 290.75 133H293.25C293.25 132.109 293.239 131.23 293.216 130.362L290.717 130.427Z" fill="#6BCEF5"/>
</svg>
