<svg width="175" height="175" viewBox="0 0 175 175" fill="none" xmlns="http://www.w3.org/2000/svg">
<g clip-path="url(#clip0_14_123)">
<path d="M156 154.691C156 154.862 155.863 155 155.692 155H20.3085C20.1374 155 20 154.862 20 154.691C20 154.52 20.1374 154.382 20.3085 154.382H155.692C155.863 154.382 156 154.52 156 154.691Z" fill="#3F3D56"/>
<path d="M113.975 139.655L115.53 146.143L110.864 147.44L109.827 140.433L113.975 139.655Z" fill="#FFB6B6"/>
<path d="M121.492 118.633L116.567 122.786L113.456 127.717L117.863 130.571L125.38 122.007L121.492 118.633Z" fill="#FFB6B6"/>
<path d="M119.937 75.8125L124.084 89.8267C124.084 89.8267 142.488 105.917 140.673 109.291C138.859 112.665 126.676 122.007 126.676 122.007C126.676 122.007 127.58 124.995 124.925 123.761C122.269 122.526 119.418 119.153 119.418 119.153C119.418 119.153 119.418 116.557 120.714 117.076C122.01 117.596 127.972 110.588 127.972 110.588L115.012 98.6504V138.569C115.012 138.569 118.122 141.292 115.012 141.511C111.901 141.731 109.05 142.25 109.05 142.25C109.05 142.25 105.421 140.952 106.717 139.655L102.829 118.374L99.9773 92.4219L102.051 78.9268L119.937 75.8125Z" fill="#090814"/>
<path d="M111.642 145.364C111.642 145.364 111.901 144.326 112.938 144.326H116.104C116.104 144.326 117.085 148.738 116.826 148.738C116.567 148.738 120.973 154.448 116.308 154.707C111.642 154.967 110.346 154.448 110.346 154.448L109.827 152.399C109.827 152.399 109.05 151.074 109.309 150.036C109.568 148.998 111.642 145.364 111.642 145.364Z" fill="#090814"/>
<path d="M118.122 128.495C118.122 128.495 121.099 128.448 120.388 129.25C119.677 130.052 118.381 131.35 118.381 131.35C118.381 131.35 115.298 137.578 113.859 136.411C112.419 135.243 110.087 122.267 110.864 120.709C111.642 119.152 112.679 119.152 112.679 119.152L117.461 122.032C117.461 122.032 114.493 129.274 118.122 128.495Z" fill="#090814"/>
<path d="M110.864 53.7529L111.901 47.2649L104.902 44.4102L103.865 54.272L110.864 53.7529Z" fill="#FFB6B6"/>
<path opacity="0.1" d="M110.864 53.7529L111.901 47.2649L104.902 44.4102L103.865 54.272L110.864 53.7529Z" fill="black"/>
<path d="M103.477 52.8447L111.771 50.7686L120.585 53.6233C120.585 53.6233 124.473 64.5232 123.177 68.416C121.881 72.3089 121.881 79.9126 121.881 79.9126C121.881 79.9126 121.751 76.591 114.234 78.9267C106.717 81.2624 101.273 81.0028 101.273 81.0028L101.014 71.6601L97.7579 63.3614C96.3661 59.8143 97.8662 55.7871 101.238 54.0187L103.477 52.8447Z" fill="#E6E6E6"/>
<path d="M141.553 83.4167C142.724 84.8206 142.949 86.5632 142.056 87.3088C141.164 88.0544 139.492 87.5207 138.321 86.1161C137.846 85.5615 137.51 84.9009 137.342 84.1898L132.458 78.1787L134.837 76.251L139.835 82.1072C140.504 82.4 141.093 82.849 141.553 83.4167Z" fill="#FFB6B6"/>
<path d="M120.208 53.7061L118.508 60.4475L126.828 73.7814L135.321 82.3277L138.074 80.0411L129.508 69.3705L123.016 55.6217L120.208 53.7061Z" fill="#E6E6E6"/>
<path d="M140.014 47.1993C145.939 46.7609 150.293 40.3221 149.739 32.8177C149.185 25.3134 143.933 19.5853 138.008 20.0236C132.083 20.462 127.729 26.9009 128.283 34.4052C128.837 41.9096 134.089 47.6377 140.014 47.1993Z" fill="#6BCEF5"/>
<path d="M139.789 47.1992H139.27V98.9577H139.789V47.1992Z" fill="#090814"/>
<path d="M139.918 46.1064L139.98 47.9405L140.808 49.6383L137.354 49.462L138.806 47.9999L138.642 46.3334L139.918 46.1064Z" fill="#6BCEF5"/>
<path d="M109.096 49.3507C113.037 49.3507 116.233 46.1515 116.233 42.2051C116.233 38.2587 113.037 35.0596 109.096 35.0596C105.154 35.0596 101.959 38.2587 101.959 42.2051C101.959 46.1515 105.154 49.3507 109.096 49.3507Z" fill="#FFB6B6"/>
<path d="M108.526 32.5986C108.732 32.7193 109.009 32.5367 109.075 32.3066C109.142 32.0766 109.064 31.8323 108.988 31.6055L108.603 30.4636C108.33 29.6537 108.04 28.8155 107.448 28.1991C106.556 27.2687 105.137 27.032 103.86 27.2035C102.22 27.4237 100.601 28.3129 99.8386 29.7833C99.076 31.2537 99.4007 33.3054 100.779 34.2228C98.8147 36.4765 98.1301 38.9882 98.2382 41.9772C98.3463 44.9662 101.6 47.7171 103.721 49.8227C104.195 49.5351 104.626 48.1875 104.365 47.698C104.105 47.2084 104.478 46.6413 104.155 46.1903C103.833 45.7394 103.563 46.4574 103.889 46.009C104.095 45.7261 103.291 45.0752 103.597 44.9059C105.077 44.0868 105.57 42.2398 106.499 40.8255C107.62 39.1195 109.539 37.9642 111.57 37.7726C112.688 37.667 113.87 37.8582 114.787 38.5084C115.704 39.1586 116.297 40.3205 116.085 41.4252C116.635 40.8654 116.91 40.045 116.806 39.2662C116.703 38.4873 116.224 37.7671 115.547 37.3708C115.959 36.0067 115.606 34.4376 114.649 33.382C113.693 32.3264 109.814 32.5062 108.418 32.784" fill="#090814"/>
<path d="M108.309 37.814C106.46 38.0138 105.125 39.6174 103.998 41.0984C103.348 41.9519 102.667 42.8946 102.684 43.9677C102.7 45.0526 103.425 45.9832 103.771 47.0114C104.337 48.692 103.785 50.6915 102.438 51.8431C103.769 52.096 105.208 51.0966 105.438 49.7597C105.706 48.2032 104.527 46.7011 104.667 45.128C104.79 43.742 105.881 42.6754 106.808 41.6392C107.735 40.6029 108.606 39.2278 108.18 37.9036" fill="#090814"/>
<path d="M101.503 80.8731H48.1911C42.1455 80.8731 37.2446 85.7798 37.2446 91.8326V143.59C37.2446 149.643 42.1455 154.549 48.1911 154.549H101.503C107.548 154.549 112.449 149.643 112.449 143.59V91.8326C112.449 85.7798 107.548 80.8731 101.503 80.8731Z" fill="white"/>
<path d="M101.503 154.809H48.1911C42.0123 154.809 36.9854 149.776 36.9854 143.59V91.8324C36.9854 85.6462 42.0123 80.6133 48.1911 80.6133H101.503C107.681 80.6133 112.708 85.6462 112.708 91.8324V143.59C112.708 149.776 107.681 154.809 101.503 154.809ZM48.1911 81.1323C42.2981 81.1323 37.5039 85.9323 37.5039 91.8324V143.59C37.5039 149.49 42.2981 154.289 48.1911 154.289H101.503C107.396 154.289 112.19 149.49 112.19 143.59V91.8324C112.19 85.9323 107.396 81.1323 101.503 81.1323H48.1911Z" fill="#3F3D56"/>
<path d="M95.8774 85.9646C96.5601 85.9646 97.1136 85.4105 97.1136 84.7269C97.1136 84.0434 96.5601 83.4893 95.8774 83.4893C95.1947 83.4893 94.6412 84.0434 94.6412 84.7269C94.6412 85.4105 95.1947 85.9646 95.8774 85.9646Z" fill="#3F3D56"/>
<path d="M99.2769 85.9646C99.9596 85.9646 100.513 85.4105 100.513 84.7269C100.513 84.0434 99.9596 83.4893 99.2769 83.4893C98.5942 83.4893 98.0407 84.0434 98.0407 84.7269C98.0407 85.4105 98.5942 85.9646 99.2769 85.9646Z" fill="#3F3D56"/>
<path d="M102.676 85.9646C103.359 85.9646 103.913 85.4105 103.913 84.7269C103.913 84.0434 103.359 83.4893 102.676 83.4893C101.994 83.4893 101.44 84.0434 101.44 84.7269C101.44 85.4105 101.994 85.9646 102.676 85.9646Z" fill="#3F3D56"/>
<path d="M46.4435 136.43C46.0594 136.43 45.747 136.742 45.747 137.127C45.747 137.314 45.8193 137.488 45.9506 137.616C46.083 137.752 46.2564 137.824 46.4435 137.824H102.199C102.583 137.824 102.896 137.512 102.896 137.127C102.896 136.94 102.823 136.766 102.692 136.638C102.56 136.502 102.386 136.43 102.199 136.43H46.4435Z" fill="#E6E6E6"/>
<path d="M76.2564 136.197V138.057H46.4435C46.1881 138.057 45.9559 137.954 45.7888 137.782C45.617 137.615 45.5148 137.383 45.5148 137.127C45.5148 136.616 45.9327 136.197 46.4435 136.197L76.2564 136.197Z" fill="#6BCEF5"/>
<path d="M101.038 132.711H91.7521C90.728 132.711 89.8948 131.877 89.8948 130.851C89.8948 129.826 90.728 128.992 91.7521 128.992H101.038C102.063 128.992 102.896 129.826 102.896 130.851C102.896 131.877 102.063 132.711 101.038 132.711Z" fill="#E6E6E6"/>
<path d="M66.151 134.039L59.6593 112.201L59.1624 112.349L65.6313 134.111" fill="#090814"/>
<path d="M66.3756 84.3395C72.3005 83.9011 76.6546 77.4622 76.1007 69.9579C75.5468 62.4535 70.2947 56.7254 64.3698 57.1638C58.4449 57.6021 54.0908 64.041 54.6447 71.5454C55.1986 79.0497 60.4507 84.7778 66.3756 84.3395Z" fill="#6BCEF5"/>
<path d="M66.1503 84.3398H65.6319V136.098H66.1503V84.3398Z" fill="#090814"/>
<path d="M59.951 111.568L60.533 113.308L61.8101 114.699L58.4495 115.517L59.4246 113.701L58.7926 112.15L59.951 111.568Z" fill="#6BCEF5"/>
<path d="M66.2794 83.2466L66.3416 85.0806L67.1694 86.7785L63.7156 86.6021L65.1674 85.1401L65.0033 83.4736L66.2794 83.2466Z" fill="#6BCEF5"/>
<path d="M60.1257 112.024C65.6746 109.899 67.996 102.479 65.3107 95.4508C62.6254 88.4227 55.9502 84.4481 50.4013 86.5733C44.8524 88.6986 42.531 96.1188 45.2163 103.147C47.9016 110.175 54.5768 114.15 60.1257 112.024Z" fill="#6BCEF5"/>
<path d="M107.227 78.2165C108.975 78.7451 110.12 80.0768 109.784 81.1909C109.448 82.3049 107.758 82.7793 106.009 82.2504C105.308 82.0487 104.664 81.6817 104.133 81.1801L96.753 78.847L97.682 75.9272L105.072 78.0684C105.792 77.9448 106.531 77.9956 107.227 78.2165Z" fill="#FFB6B6"/>
<path d="M94.4043 59.0732L102.181 53.3638L101.921 64.2637L94.6635 73.6065L102.44 76.7207L102.181 81.1673C102.181 81.1673 92.3306 78.7969 90.7753 78.5374C89.2201 78.2779 87.924 74.6446 87.924 74.6446L94.4043 59.0732Z" fill="#E6E6E6"/>
</g>
<defs>
<clipPath id="clip0_14_123">
<rect width="136" height="135" fill="white" transform="translate(20 20)"/>
</clipPath>
</defs>
</svg>
