<svg width="175" height="175" viewBox="0 0 175 175" fill="none" xmlns="http://www.w3.org/2000/svg">
<g clip-path="url(#clip0_14_77)">
<path d="M89.6637 54.5718H88.9826V35.841C88.9826 32.9659 87.8452 30.2086 85.8207 28.1756C83.7961 26.1426 81.0503 25.0005 78.1872 25.0005H38.6686C35.8054 25.0005 33.0596 26.1426 31.035 28.1756C29.0105 30.2086 27.8731 32.9659 27.8731 35.841V138.599C27.8731 141.474 29.0105 144.232 31.035 146.265C33.0596 148.298 35.8054 149.44 38.6686 149.44H78.187C81.0501 149.44 83.796 148.298 85.8205 146.265C87.845 144.232 88.9824 141.474 88.9824 138.599V67.9046H89.6635L89.6637 54.5718Z" fill="#090814"/>
<path d="M78.6469 27.8208H73.4886C73.7258 28.4048 73.8164 29.0385 73.7523 29.6659C73.6882 30.2934 73.4714 30.8954 73.1211 31.4189C72.7707 31.9424 72.2975 32.3714 71.7432 32.668C71.1889 32.9646 70.5704 33.1198 69.9423 33.1198H47.3025C46.6744 33.1198 46.0559 32.9647 45.5015 32.6681C44.9472 32.3714 44.474 31.9425 44.1236 31.419C43.7732 30.8955 43.5564 30.2934 43.4923 29.666C43.4282 29.0385 43.5188 28.4048 43.756 27.8208H38.9373C36.799 27.8208 34.7484 28.6738 33.2364 30.192C31.7245 31.7103 30.8751 33.7695 30.8751 35.9166V138.524C30.8751 140.671 31.7245 142.731 33.2364 144.249C34.7484 145.767 36.799 146.62 38.9373 146.62H78.6454C80.7836 146.62 82.8342 145.767 84.3462 144.249C85.8581 142.731 86.7075 140.671 86.7075 138.524V35.9166C86.7075 33.7698 85.8584 31.7108 84.3468 30.1926C82.8352 28.6744 80.7848 27.8213 78.6469 27.8208Z" fill="white"/>
<path d="M53.8428 102.099H66.6107C66.784 102.099 66.9502 102.168 67.0728 102.291C67.1953 102.414 67.2642 102.581 67.2642 102.755C67.2642 102.929 67.1953 103.096 67.0728 103.219C66.9502 103.342 66.784 103.411 66.6107 103.411H53.8428C53.6695 103.411 53.5032 103.342 53.3807 103.219C53.2581 103.096 53.1893 102.929 53.1893 102.755C53.1893 102.581 53.2581 102.414 53.3807 102.291C53.5032 102.168 53.6695 102.099 53.8428 102.099Z" fill="#6BCEF5"/>
<path d="M53.8428 105.348H77.0671C77.2404 105.348 77.4066 105.417 77.5292 105.54C77.6518 105.663 77.7206 105.83 77.7206 106.004C77.7206 106.178 77.6518 106.345 77.5292 106.468C77.4066 106.591 77.2404 106.66 77.0671 106.66H53.8428C53.6695 106.66 53.5032 106.591 53.3807 106.468C53.2581 106.345 53.1893 106.178 53.1893 106.004C53.1893 105.83 53.2581 105.663 53.3807 105.54C53.5032 105.417 53.6695 105.348 53.8428 105.348Z" fill="#E6E6E6"/>
<path d="M53.8428 108.425H77.0431C77.2164 108.425 77.3826 108.494 77.5052 108.618C77.6277 108.741 77.6966 108.907 77.6966 109.082C77.6966 109.256 77.6277 109.423 77.5052 109.546C77.3826 109.669 77.2164 109.738 77.0431 109.738H53.8428C53.6695 109.738 53.5032 109.669 53.3807 109.546C53.2581 109.423 53.1893 109.256 53.1893 109.082C53.1893 108.907 53.2581 108.741 53.3807 108.618C53.5032 108.494 53.6695 108.425 53.8428 108.425Z" fill="#E6E6E6"/>
<path d="M41.1781 100.63H48.9101C49.2714 100.63 49.6179 100.774 49.8733 101.031C50.1288 101.287 50.2723 101.635 50.2723 101.998V109.762C50.2723 110.125 50.1288 110.473 49.8733 110.729C49.6179 110.986 49.2714 111.13 48.9101 111.13H41.1781C40.8168 111.13 40.4703 110.986 40.2149 110.729C39.9594 110.473 39.8159 110.125 39.8159 109.762V101.998C39.8159 101.635 39.9594 101.287 40.2149 101.031C40.4703 100.774 40.8168 100.63 41.1781 100.63Z" fill="#6BCEF5"/>
<path d="M128.995 81.5436C131.858 81.5436 134.18 79.2126 134.18 76.3372C134.18 73.4618 131.858 71.1309 128.995 71.1309C126.132 71.1309 123.81 73.4618 123.81 76.3372C123.81 79.2126 126.132 81.5436 128.995 81.5436Z" fill="#090814"/>
<path d="M131.725 79.8027C131.725 79.8027 131.647 83.0173 131.959 83.0949C132.271 83.1725 127.666 84.4274 127.666 84.4274L127.197 80.0378L131.725 79.8027Z" fill="#FFB9B9"/>
<path d="M95.3495 107.238C95.3495 107.238 91.9149 107.238 91.8369 106.846C91.7589 106.454 91.0564 110.061 91.0564 110.061L92.4615 110.531C92.4615 110.531 95.1155 109.355 95.3497 109.355C95.5838 109.355 95.3495 107.238 95.3495 107.238Z" fill="#FFB9B9"/>
<path d="M91.6026 108.649C91.6026 108.649 92.227 106.533 93.0077 106.455C93.0077 106.455 90.3536 104.73 90.2757 104.181C90.1977 103.633 89.2608 102.222 88.8705 102.692C88.4803 103.163 88.4803 110.609 89.1828 111.393C89.8854 112.177 93.0077 110.291 93.0077 110.291C93.0077 110.291 91.0562 109.433 91.6026 108.649Z" fill="#090814"/>
<path d="M133.989 138.67L134.613 142.041L131.725 142.511V138.67H133.989Z" fill="#FFB9B9"/>
<path d="M133.989 141.648C133.989 141.648 134.457 140.159 134.769 140.394C135.081 140.629 135.55 142.119 135.472 142.511C135.394 142.903 134.847 145.96 135.081 146.508C135.316 147.057 133.911 149.879 132.115 149.644C130.32 149.409 130.476 147.841 130.476 147.841L131.1 145.411L131.335 141.57C131.335 141.57 133.364 141.257 133.989 141.648Z" fill="#090814"/>
<path d="M130.809 73.012C131.994 73.012 132.954 72.0474 132.954 70.8575C132.954 69.6677 131.994 68.7031 130.809 68.7031C129.624 68.7031 128.663 69.6677 128.663 70.8575C128.663 72.0474 129.624 73.012 130.809 73.012Z" fill="#090814"/>
<path d="M133.669 69.6904C133.669 69.1578 133.473 68.6441 133.118 68.2484C132.763 67.8527 132.274 67.6031 131.747 67.5478C131.821 67.54 131.896 67.5361 131.97 67.5361C132.539 67.5361 133.085 67.7631 133.487 68.1671C133.89 68.5712 134.116 69.1192 134.116 69.6906C134.116 70.2619 133.89 70.8099 133.487 71.214C133.085 71.618 132.539 71.845 131.97 71.845C131.895 71.845 131.821 71.8411 131.747 71.8334C132.274 71.7779 132.762 71.5282 133.117 71.1325C133.472 70.7368 133.669 70.2231 133.668 69.6906L133.669 69.6904Z" fill="#090814"/>
<path d="M128.993 81.9984C130.803 81.9984 132.271 80.5244 132.271 78.7062C132.271 76.888 130.803 75.4141 128.993 75.4141C127.182 75.4141 125.714 76.888 125.714 78.7062C125.714 80.5244 127.182 81.9984 128.993 81.9984Z" fill="#FFB9B9"/>
<path d="M135.472 101.595C135.472 101.595 135.316 105.514 134.691 107.552C134.067 109.59 131.815 124.103 132.284 125.202C132.752 126.3 135.159 138.436 134.613 139.141C134.067 139.846 131.491 139.611 131.491 139.611L127.99 124.888C127.99 124.888 128.68 108.649 122.904 108.257C117.128 107.865 107.683 107.63 107.683 107.63C107.683 107.63 101.594 109.433 98.8624 109.355C96.1307 109.276 94.5691 110.06 94.5691 110.06L94.1007 106.846L106.2 104.18C106.2 104.18 117.285 100.34 123.373 101.359C129.461 102.379 135.472 101.595 135.472 101.595Z" fill="#090814"/>
<path d="M131.1 82.0769C131.1 82.0769 132.036 81.5282 132.271 82.0769C132.505 82.6256 134.144 83.096 134.768 82.6256C135.393 82.1552 136.954 82.7824 136.954 82.7824L138.671 87.8777C138.671 87.8777 137.813 92.2673 137.032 94.6972C136.252 97.1271 135.939 102.144 136.252 102.614C136.564 103.084 130.007 104.965 126.806 103.79C123.606 102.614 122.904 101.281 122.904 101.281C122.904 101.281 126.416 96.2646 125.245 93.913C124.075 91.5615 125.011 88.8965 125.011 88.8965L124.544 86.2318L127.198 84.7425C127.198 84.7425 127.354 83.3316 127.979 83.3316C128.603 83.3316 131.1 82.0769 131.1 82.0769Z" fill="#D6D6E3"/>
<path d="M125.714 86.3096H124.544C124.219 86.6148 123.977 86.998 123.841 87.4231C123.704 87.8482 123.678 88.3012 123.764 88.7395C124.076 90.2287 125.483 95.1663 125.483 95.1663L126.651 92.1101L125.714 86.3096Z" fill="#D6D6E3"/>
<path d="M122.352 98.8975C122.352 98.8975 120.016 101.438 121.733 102.77C123.45 104.103 123.874 99.7131 123.874 99.7131L122.352 98.8975Z" fill="#FFB8B8"/>
<path d="M125.714 93.5991L125.168 95.7939L124.231 97.5183C124.231 97.5183 121.03 99.6348 121.03 100.419C121.03 100.419 122.435 98.6157 124.231 100.419L125.832 96.5385L125.714 93.5991Z" fill="#D6D6E3"/>
<path d="M128.392 77.3879C130.367 77.3879 131.968 76.4234 131.968 75.2335C131.968 74.0437 130.367 73.0791 128.392 73.0791C126.417 73.0791 124.816 74.0437 124.816 75.2335C124.816 76.4234 126.417 77.3879 128.392 77.3879Z" fill="#090814"/>
<path d="M135.472 75.4139C135.472 75.4139 132.974 74.003 131.959 75.022C130.944 76.0411 135.003 77.6087 135.003 77.6087L135.472 75.4139Z" fill="#FFB9B9"/>
<path d="M136.408 83.1742L136.955 82.7823C136.955 82.7823 137.579 81.8419 138.126 82.1553C138.672 82.4687 141.872 80.9796 141.872 80.9796C141.872 80.9796 140.701 81.5283 140.701 80.5877C140.701 79.6471 140.545 79.8039 139.764 79.8039C138.984 79.8039 138.984 80.1958 138.672 79.6471C138.359 79.0984 138.515 78.7849 137.969 79.0984C137.423 79.412 136.798 79.1768 136.642 78.9416C136.486 78.7065 133.676 78.3146 133.676 78.3146C133.676 78.3146 134.769 75.1001 135.003 74.8657C135.237 74.6313 141.248 77.2954 141.248 77.2954C141.248 77.2954 148.82 79.4119 146.868 81.8417C144.917 84.2716 137.892 87.9557 137.892 87.9557L136.408 83.1742Z" fill="#D6D6E3"/>
<path d="M53.8428 82.0068H66.6107C66.784 82.0068 66.9502 82.076 67.0728 82.199C67.1953 82.3221 67.2642 82.489 67.2642 82.6631C67.2642 82.8371 67.1953 83.004 67.0728 83.1271C66.9502 83.2502 66.784 83.3193 66.6107 83.3193H53.8428C53.6695 83.3193 53.5032 83.2502 53.3807 83.1271C53.2581 83.004 53.1893 82.8371 53.1893 82.6631C53.1893 82.489 53.2581 82.3221 53.3807 82.199C53.5032 82.076 53.6695 82.0068 53.8428 82.0068Z" fill="#6BCEF5"/>
<path d="M53.8428 85.2559H77.0671C77.2404 85.2559 77.4066 85.325 77.5292 85.4481C77.6518 85.5711 77.7206 85.7381 77.7206 85.9121C77.7206 86.0862 77.6518 86.2531 77.5292 86.3761C77.4066 86.4992 77.2404 86.5683 77.0671 86.5683H53.8428C53.6695 86.5683 53.5032 86.4992 53.3807 86.3761C53.2581 86.2531 53.1893 86.0862 53.1893 85.9121C53.1893 85.7381 53.2581 85.5711 53.3807 85.4481C53.5032 85.325 53.6695 85.2559 53.8428 85.2559Z" fill="#E6E6E6"/>
<path d="M53.8428 88.3335H77.0431C77.2164 88.3335 77.3826 88.4026 77.5052 88.5257C77.6277 88.6488 77.6966 88.8157 77.6966 88.9897C77.6966 89.1638 77.6277 89.3307 77.5052 89.4538C77.3826 89.5768 77.2164 89.646 77.0431 89.646H53.8428C53.6695 89.646 53.5032 89.5768 53.3807 89.4538C53.2581 89.3307 53.1893 89.1638 53.1893 88.9897C53.1893 88.8157 53.2581 88.6488 53.3807 88.5257C53.5032 88.4026 53.6695 88.3335 53.8428 88.3335Z" fill="#E6E6E6"/>
<path d="M41.1781 80.5381H48.9101C49.2714 80.5381 49.6179 80.6822 49.8733 80.9387C50.1288 81.1953 50.2723 81.5432 50.2723 81.906V89.6703C50.2723 90.0331 50.1288 90.381 49.8733 90.6375C49.6179 90.894 49.2714 91.0382 48.9101 91.0382H41.1781C40.8168 91.0382 40.4703 90.894 40.2149 90.6375C39.9594 90.381 39.8159 90.0331 39.8159 89.6703V81.906C39.8159 81.5432 39.9594 81.1953 40.2149 80.9387C40.4703 80.6822 40.8168 80.5381 41.1781 80.5381Z" fill="#6BCEF5"/>
<path d="M53.8428 61.915H66.6107C66.784 61.915 66.9502 61.9842 67.0728 62.1072C67.1953 62.2303 67.2642 62.3972 67.2642 62.5713C67.2642 62.7453 67.1953 62.9122 67.0728 63.0353C66.9502 63.1584 66.784 63.2275 66.6107 63.2275H53.8428C53.6695 63.2275 53.5032 63.1584 53.3807 63.0353C53.2581 62.9122 53.1893 62.7453 53.1893 62.5713C53.1893 62.3972 53.2581 62.2303 53.3807 62.1072C53.5032 61.9842 53.6695 61.915 53.8428 61.915Z" fill="#6BCEF5"/>
<path d="M53.8428 65.1641H77.0671C77.2404 65.1641 77.4066 65.2332 77.5292 65.3563C77.6518 65.4793 77.7206 65.6463 77.7206 65.8203C77.7206 65.9944 77.6518 66.1613 77.5292 66.2843C77.4066 66.4074 77.2404 66.4766 77.0671 66.4766H53.8428C53.6695 66.4766 53.5032 66.4074 53.3807 66.2843C53.2581 66.1613 53.1893 65.9944 53.1893 65.8203C53.1893 65.6463 53.2581 65.4793 53.3807 65.3563C53.5032 65.2332 53.6695 65.1641 53.8428 65.1641Z" fill="#E6E6E6"/>
<path d="M53.8428 68.2417H77.0431C77.2164 68.2417 77.3826 68.3108 77.5052 68.4339C77.6277 68.557 77.6966 68.7239 77.6966 68.8979C77.6966 69.072 77.6277 69.2389 77.5052 69.362C77.3826 69.485 77.2164 69.5542 77.0431 69.5542H53.8428C53.6695 69.5542 53.5032 69.485 53.3807 69.362C53.2581 69.2389 53.1893 69.072 53.1893 68.8979C53.1893 68.7239 53.2581 68.557 53.3807 68.4339C53.5032 68.3108 53.6695 68.2417 53.8428 68.2417Z" fill="#E6E6E6"/>
<path d="M41.1781 60.4463H48.9101C49.2714 60.4463 49.6179 60.5904 49.8733 60.8469C50.1288 61.1035 50.2723 61.4514 50.2723 61.8142V69.5785C50.2723 69.9413 50.1288 70.2892 49.8733 70.5457C49.6179 70.8023 49.2714 70.9464 48.9101 70.9464H41.1781C40.8168 70.9464 40.4703 70.8023 40.2149 70.5457C39.9594 70.2892 39.8159 69.9413 39.8159 69.5785V61.8142C39.8159 61.4514 39.9594 61.1035 40.2149 60.8469C40.4703 60.5904 40.8168 60.4463 41.1781 60.4463Z" fill="#6BCEF5"/>
<path d="M73.224 121.918H44.4477C41.5602 121.918 39.2194 124.269 39.2194 127.168C39.2194 130.068 41.5602 132.419 44.4477 132.419H73.224C76.1115 132.419 78.4523 130.068 78.4523 127.168C78.4523 124.269 76.1115 121.918 73.224 121.918Z" fill="#E6E6E6"/>
<path d="M63.9965 45.6045C63.9965 42.705 61.6557 40.3545 58.7682 40.3545C55.8808 40.3545 53.54 42.705 53.54 45.6045C53.54 48.504 55.8808 50.8546 58.7682 50.8546C61.6557 50.8546 63.9965 48.504 63.9965 45.6045Z" fill="#E6E6E6"/>
<path d="M154 150H21V149.658H153.867L154 150Z" fill="#CCCCCC"/>
</g>
<defs>
<clipPath id="clip0_14_77">
<rect width="133" height="125" fill="white" transform="translate(21 25)"/>
</clipPath>
</defs>
</svg>
